<?xml version="1.0" standalone="no"?>
<!DOCTYPE svg PUBLIC "-//W3C//DTD SVG 20010904//EN"
 "http://www.w3.org/TR/2001/REC-SVG-20010904/DTD/svg10.dtd">
<svg version="1.0" xmlns="http://www.w3.org/2000/svg"
 width="690.000000pt" height="678.000000pt" viewBox="0 0 690.000000 678.000000"
 preserveAspectRatio="xMidYMid meet">
<metadata>
Created by potrace 1.16, written by Peter Selinger 2001-2019
</metadata>
<g transform="translate(0.000000,678.000000) scale(0.100000,-0.100000)"
fill="#000000" stroke="none">
<path d="M3540 6582 c-79 -37 -83 -55 -85 -332 -1 -295 3 -325 50 -367 41 -39
84 -43 132 -13 58 35 63 62 63 355 0 277 -3 297 -49 339 -21 19 -87 30 -111
18z"/>
<path d="M2595 6208 c-61 -33 -84 -83 -70 -149 4 -19 32 -60 69 -100 33 -37
113 -127 176 -199 63 -73 126 -145 138 -159 20 -22 32 -26 77 -26 46 0 58 4
84 29 34 32 48 81 35 120 -9 24 -52 76 -249 300 -49 56 -101 116 -115 132 -49
58 -100 77 -145 52z"/>
<path d="M4485 6201 c-28 -17 -77 -66 -134 -137 -13 -16 -58 -67 -100 -113
-42 -46 -102 -116 -133 -155 -50 -61 -58 -76 -56 -109 4 -73 75 -128 146 -112
34 7 51 23 172 159 52 60 132 149 178 199 89 99 108 140 92 196 -12 41 -24 57
-63 76 -40 20 -65 19 -102 -4z"/>
<path d="M3480 5394 c-125 -45 -219 -139 -301 -300 -117 -229 -154 -299 -160
-304 -4 -3 -10 -16 -14 -30 -4 -14 -10 -27 -14 -30 -3 -3 -18 -27 -33 -55 -45
-85 -89 -168 -118 -220 -50 -91 -93 -169 -119 -220 -14 -27 -28 -52 -31 -55
-3 -3 -16 -27 -30 -55 -14 -27 -28 -52 -31 -55 -3 -3 -33 -61 -67 -130 -65
-132 -113 -222 -123 -230 -3 -3 -9 -12 -13 -20 -19 -42 -89 -140 -140 -201
-151 -176 -276 -366 -276 -419 0 -9 -4 -20 -9 -26 -16 -17 -55 -210 -72 -354
-5 -47 -16 -224 -24 -395 -14 -311 -27 -453 -44 -490 -5 -11 -24 -58 -42 -105
-17 -47 -43 -102 -56 -122 -12 -21 -23 -40 -23 -43 0 -4 -13 -25 -28 -48 -15
-23 -36 -60 -46 -82 -11 -22 -23 -48 -27 -57 -15 -30 -10 -110 9 -161 38 -101
70 -122 539 -357 235 -118 430 -218 433 -222 3 -3 18 -10 33 -13 15 -4 27 -11
27 -15 0 -4 11 -11 24 -14 13 -3 51 -21 84 -40 34 -19 71 -38 84 -42 13 -3 25
-9 28 -13 6 -8 95 -51 105 -51 4 0 19 -9 33 -19 15 -10 58 -26 95 -36 73 -18
129 -12 207 23 67 30 147 107 210 202 8 12 23 33 33 45 9 13 17 26 17 29 0 4
5 12 10 19 6 7 37 53 70 104 39 59 85 114 131 155 125 110 349 320 357 333 4
8 30 37 57 67 158 168 315 410 405 623 12 28 25 59 30 70 4 11 15 38 24 60 10
22 21 47 25 55 5 9 12 30 16 49 4 18 13 44 21 59 8 15 14 33 14 40 0 7 4 20 9
30 5 9 17 44 27 77 10 33 21 65 25 70 4 6 10 28 14 50 3 22 10 49 15 60 18 39
32 131 37 234 6 135 -13 204 -81 295 -46 60 -167 128 -246 138 -23 3 -25 8
-28 58 -2 30 -7 59 -11 65 -5 5 -11 23 -15 38 -4 16 -18 46 -32 68 -64 101
-173 170 -306 193 -42 7 -80 16 -85 19 -6 4 -13 24 -17 46 -9 59 -55 140 -111
196 -67 67 -151 107 -237 113 -48 3 -68 9 -68 18 0 15 54 158 70 186 6 10 10
23 10 29 0 6 6 25 14 42 7 18 21 52 31 77 10 25 24 59 31 77 8 17 14 38 14 46
0 9 4 18 9 22 5 3 13 20 17 37 3 18 10 39 14 48 5 8 16 38 25 65 9 28 21 59
26 70 13 31 30 103 39 175 25 188 -46 352 -182 425 -48 26 -64 29 -163 31 -60
2 -117 1 -125 -2z m197 -250 c11 -10 25 -29 32 -41 14 -27 15 -209 1 -218 -5
-3 -10 -15 -10 -26 0 -18 -31 -119 -50 -164 -5 -11 -16 -42 -26 -70 -9 -27
-21 -54 -26 -59 -4 -6 -8 -17 -8 -25 0 -9 -7 -29 -15 -45 -8 -15 -15 -33 -15
-38 0 -6 -6 -24 -14 -41 -7 -18 -21 -52 -31 -77 -34 -87 -46 -115 -55 -132 -6
-10 -10 -23 -10 -28 0 -6 -9 -32 -21 -58 -11 -26 -24 -56 -28 -67 -5 -11 -13
-31 -19 -45 -6 -14 -17 -41 -26 -60 -8 -19 -26 -61 -40 -93 -14 -32 -26 -60
-26 -63 0 -3 -6 -20 -14 -37 -8 -18 -24 -54 -36 -82 -12 -27 -25 -59 -30 -70
-5 -11 -21 -47 -35 -80 -41 -92 -56 -125 -87 -191 -15 -34 -28 -67 -28 -73 0
-6 -4 -11 -10 -11 -5 0 -12 -16 -16 -35 -3 -19 -10 -38 -15 -41 -15 -9 -10
-53 8 -80 45 -69 153 26 264 233 17 32 35 63 39 68 16 20 190 370 190 382 0 7
3 13 8 13 4 0 12 10 17 23 8 19 19 22 69 25 142 7 246 -93 246 -238 0 -55 -7
-75 -71 -208 -39 -81 -103 -212 -141 -292 -38 -80 -74 -153 -79 -162 -21 -41
1 -108 36 -108 49 0 107 63 200 215 27 44 52 82 55 85 4 3 9 12 13 20 4 8 11
22 17 30 34 52 120 202 120 210 0 4 3 10 8 12 4 2 16 20 26 41 18 34 23 37 61
37 50 0 122 -29 152 -62 74 -81 88 -180 40 -283 -16 -33 -32 -69 -37 -80 -5
-11 -30 -65 -56 -120 -25 -55 -60 -129 -76 -165 -81 -178 -78 -163 -46 -197
45 -48 130 -14 172 70 20 38 39 70 47 77 3 3 9 12 12 20 4 8 21 38 38 65 17
28 35 62 42 78 6 15 15 27 19 27 4 0 8 5 8 10 0 6 16 35 35 65 29 45 40 55 63
55 31 0 102 -31 120 -52 27 -33 44 -112 39 -182 -6 -77 -22 -169 -36 -201 -5
-11 -16 -47 -26 -80 -9 -33 -20 -67 -24 -75 -5 -9 -12 -31 -16 -50 -4 -19 -11
-41 -15 -50 -4 -8 -20 -49 -35 -90 -15 -41 -36 -93 -45 -115 -9 -22 -23 -55
-31 -74 -30 -74 -121 -244 -166 -312 -26 -39 -52 -78 -58 -87 -11 -18 -29 -43
-85 -113 -47 -59 -331 -343 -400 -399 -102 -83 -195 -185 -249 -275 -30 -50
-66 -106 -80 -125 -14 -19 -30 -41 -36 -49 -5 -8 -36 -41 -67 -73 -76 -77 -94
-77 -248 -1 -63 32 -117 61 -120 65 -3 3 -18 10 -33 13 -15 4 -27 11 -27 15 0
4 -12 11 -27 15 -15 3 -30 10 -33 13 -8 10 -135 72 -149 72 -6 0 -11 4 -11 9
0 5 -12 12 -27 16 -15 3 -30 10 -33 13 -3 4 -160 85 -350 181 -190 95 -355
183 -367 194 -34 30 -29 70 17 142 45 73 130 238 130 254 0 6 4 19 9 29 36 66
59 205 71 442 23 469 32 605 39 619 5 9 11 47 15 86 4 38 11 74 15 80 5 5 12
31 15 57 4 26 11 50 17 53 5 4 9 14 10 23 0 25 77 144 137 215 98 115 162 196
162 202 0 3 13 23 29 43 44 56 130 203 196 337 33 66 62 122 65 125 3 3 11 16
17 30 7 14 31 57 53 95 22 39 46 81 53 95 6 14 14 27 17 30 5 5 20 32 74 135
17 33 33 62 36 65 3 3 13 20 23 38 43 83 131 246 187 347 18 33 59 110 91 170
61 116 111 185 135 185 8 0 14 4 14 9 0 27 138 23 167 -5z"/>
<path d="M2105 5179 c-30 -27 -35 -37 -35 -74 0 -53 24 -97 65 -119 27 -15 65
-17 317 -14 l286 3 27 25 c15 14 33 41 41 60 13 31 13 39 -2 73 -36 78 -29 77
-365 77 l-298 0 -36 -31z"/>
<path d="M4384 5176 c-28 -28 -34 -42 -34 -76 0 -52 22 -91 64 -114 28 -15 64
-17 318 -14 l287 3 29 33 c50 56 49 123 -1 172 l-31 30 -299 0 -299 0 -34 -34z"/>
</g>
</svg>
